<mxfile host="65bd71144e">
    <diagram id="swH7MTI8-7Vg_XgG2Zjn" name="Page-1">
        <mxGraphModel dx="3031" dy="1953" grid="1" gridSize="10" guides="1" tooltips="1" connect="1" arrows="1" fold="1" page="1" pageScale="1" pageWidth="827" pageHeight="1169" math="0" shadow="0">
            <root>
                <mxCell id="0"/>
                <mxCell id="1" parent="0"/>
                <mxCell id="2" value="Device" style="swimlane;fontStyle=1;align=center;verticalAlign=top;childLayout=stackLayout;horizontal=1;startSize=26;horizontalStack=0;resizeParent=1;resizeParentMax=0;resizeLast=0;collapsible=1;marginBottom=0;" vertex="1" parent="1">
                    <mxGeometry x="-300" y="220" width="410" height="450" as="geometry"/>
                </mxCell>
                <mxCell id="3" value="-  String: Did" style="text;strokeColor=none;fillColor=none;align=left;verticalAlign=top;spacingLeft=4;spacingRight=4;overflow=hidden;rotatable=0;points=[[0,0.5],[1,0.5]];portConstraint=eastwest;" vertex="1" parent="2">
                    <mxGeometry y="26" width="410" height="26" as="geometry"/>
                </mxCell>
                <mxCell id="7" value="- Angle: Dangle" style="text;strokeColor=none;fillColor=none;align=left;verticalAlign=top;spacingLeft=4;spacingRight=4;overflow=hidden;rotatable=0;points=[[0,0.5],[1,0.5]];portConstraint=eastwest;" vertex="1" parent="2">
                    <mxGeometry y="52" width="410" height="26" as="geometry"/>
                </mxCell>
                <mxCell id="8" value="- int: range" style="text;strokeColor=none;fillColor=none;align=left;verticalAlign=top;spacingLeft=4;spacingRight=4;overflow=hidden;rotatable=0;points=[[0,0.5],[1,0.5]];portConstraint=eastwest;" vertex="1" parent="2">
                    <mxGeometry y="78" width="410" height="26" as="geometry"/>
                </mxCell>
                <mxCell id="4" value="- File: files[]" style="text;strokeColor=none;fillColor=none;align=left;verticalAlign=top;spacingLeft=4;spacingRight=4;overflow=hidden;rotatable=0;points=[[0,0.5],[1,0.5]];portConstraint=eastwest;" vertex="1" parent="2">
                    <mxGeometry y="104" width="410" height="26" as="geometry"/>
                </mxCell>
                <mxCell id="5" value="" style="line;strokeWidth=1;fillColor=none;align=left;verticalAlign=middle;spacingTop=-1;spacingLeft=3;spacingRight=3;rotatable=0;labelPosition=right;points=[];portConstraint=eastwest;strokeColor=inherit;" vertex="1" parent="2">
                    <mxGeometry y="130" width="410" height="8" as="geometry"/>
                </mxCell>
                <mxCell id="6" value="+ Device(String did, Angle dangle, int newrange) : constructer" style="text;strokeColor=none;fillColor=none;align=left;verticalAlign=top;spacingLeft=4;spacingRight=4;overflow=hidden;rotatable=0;points=[[0,0.5],[1,0.5]];portConstraint=eastwest;" vertex="1" parent="2">
                    <mxGeometry y="138" width="410" height="26" as="geometry"/>
                </mxCell>
                <mxCell id="10" value="+ getDid(): String" style="text;strokeColor=none;fillColor=none;align=left;verticalAlign=top;spacingLeft=4;spacingRight=4;overflow=hidden;rotatable=0;points=[[0,0.5],[1,0.5]];portConstraint=eastwest;" vertex="1" parent="2">
                    <mxGeometry y="164" width="410" height="26" as="geometry"/>
                </mxCell>
                <mxCell id="11" value="+ getDangle(): Angle" style="text;strokeColor=none;fillColor=none;align=left;verticalAlign=top;spacingLeft=4;spacingRight=4;overflow=hidden;rotatable=0;points=[[0,0.5],[1,0.5]];portConstraint=eastwest;" vertex="1" parent="2">
                    <mxGeometry y="190" width="410" height="26" as="geometry"/>
                </mxCell>
                <mxCell id="13" value="+ getRange(): int" style="text;strokeColor=none;fillColor=none;align=left;verticalAlign=top;spacingLeft=4;spacingRight=4;overflow=hidden;rotatable=0;points=[[0,0.5],[1,0.5]];portConstraint=eastwest;" vertex="1" parent="2">
                    <mxGeometry y="216" width="410" height="26" as="geometry"/>
                </mxCell>
                <mxCell id="14" value="+ isHasfile() : boolean" style="text;strokeColor=none;fillColor=none;align=left;verticalAlign=top;spacingLeft=4;spacingRight=4;overflow=hidden;rotatable=0;points=[[0,0.5],[1,0.5]];portConstraint=eastwest;" vertex="1" parent="2">
                    <mxGeometry y="242" width="410" height="26" as="geometry"/>
                </mxCell>
                <mxCell id="15" value="+ getfiles() : File[]" style="text;strokeColor=none;fillColor=none;align=left;verticalAlign=top;spacingLeft=4;spacingRight=4;overflow=hidden;rotatable=0;points=[[0,0.5],[1,0.5]];portConstraint=eastwest;" vertex="1" parent="2">
                    <mxGeometry y="268" width="410" height="26" as="geometry"/>
                </mxCell>
                <mxCell id="16" value="+ addfile(File) : void" style="text;strokeColor=none;fillColor=none;align=left;verticalAlign=top;spacingLeft=4;spacingRight=4;overflow=hidden;rotatable=0;points=[[0,0.5],[1,0.5]];portConstraint=eastwest;" vertex="1" parent="2">
                    <mxGeometry y="294" width="410" height="26" as="geometry"/>
                </mxCell>
                <mxCell id="17" value="+ creatfile(String name, String content) : void" style="text;strokeColor=none;fillColor=none;align=left;verticalAlign=top;spacingLeft=4;spacingRight=4;overflow=hidden;rotatable=0;points=[[0,0.5],[1,0.5]];portConstraint=eastwest;" vertex="1" parent="2">
                    <mxGeometry y="320" width="410" height="26" as="geometry"/>
                </mxCell>
                <mxCell id="18" value="+ sfile(String filename, Satellite sa): void throws FileTransferException " style="text;strokeColor=none;fillColor=none;align=left;verticalAlign=top;spacingLeft=4;spacingRight=4;overflow=hidden;rotatable=0;points=[[0,0.5],[1,0.5]];portConstraint=eastwest;" vertex="1" parent="2">
                    <mxGeometry y="346" width="410" height="26" as="geometry"/>
                </mxCell>
                <mxCell id="19" value="+ reciving(File gotfile, Satellite fromSa) : void throws FileTransferException " style="text;strokeColor=none;fillColor=none;align=left;verticalAlign=top;spacingLeft=4;spacingRight=4;overflow=hidden;rotatable=0;points=[[0,0.5],[1,0.5]];portConstraint=eastwest;" vertex="1" parent="2">
                    <mxGeometry y="372" width="410" height="26" as="geometry"/>
                </mxCell>
                <mxCell id="20" value="+ transiting(File f, List&lt;String&gt; rangelist) : void" style="text;strokeColor=none;fillColor=none;align=left;verticalAlign=top;spacingLeft=4;spacingRight=4;overflow=hidden;rotatable=0;points=[[0,0.5],[1,0.5]];portConstraint=eastwest;" vertex="1" parent="2">
                    <mxGeometry y="398" width="410" height="26" as="geometry"/>
                </mxCell>
                <mxCell id="21" value="+ transitdone(String filename) : void" style="text;strokeColor=none;fillColor=none;align=left;verticalAlign=top;spacingLeft=4;spacingRight=4;overflow=hidden;rotatable=0;points=[[0,0.5],[1,0.5]];portConstraint=eastwest;" vertex="1" parent="2">
                    <mxGeometry y="424" width="410" height="26" as="geometry"/>
                </mxCell>
                <mxCell id="22" value="DesktopDevice" style="swimlane;fontStyle=3;align=center;verticalAlign=top;childLayout=stackLayout;horizontal=1;startSize=26;horizontalStack=0;resizeParent=1;resizeParentMax=0;resizeLast=0;collapsible=1;marginBottom=0;" vertex="1" parent="1">
                    <mxGeometry x="-740" y="584" width="250" height="86" as="geometry"/>
                </mxCell>
                <mxCell id="24" value="+ static int : range" style="text;strokeColor=none;fillColor=none;align=left;verticalAlign=top;spacingLeft=4;spacingRight=4;overflow=hidden;rotatable=0;points=[[0,0.5],[1,0.5]];portConstraint=eastwest;" vertex="1" parent="22">
                    <mxGeometry y="26" width="250" height="26" as="geometry"/>
                </mxCell>
                <mxCell id="25" value="" style="line;strokeWidth=1;fillColor=none;align=left;verticalAlign=middle;spacingTop=-1;spacingLeft=3;spacingRight=3;rotatable=0;labelPosition=right;points=[];portConstraint=eastwest;strokeColor=inherit;" vertex="1" parent="22">
                    <mxGeometry y="52" width="250" height="8" as="geometry"/>
                </mxCell>
                <mxCell id="26" value="+ DesktopDevice(String did, Angle dangle)" style="text;strokeColor=none;fillColor=none;align=left;verticalAlign=top;spacingLeft=4;spacingRight=4;overflow=hidden;rotatable=0;points=[[0,0.5],[1,0.5]];portConstraint=eastwest;" vertex="1" parent="22">
                    <mxGeometry y="60" width="250" height="26" as="geometry"/>
                </mxCell>
                <mxCell id="29" value="HandheldDevice" style="swimlane;fontStyle=3;align=center;verticalAlign=top;childLayout=stackLayout;horizontal=1;startSize=26;horizontalStack=0;resizeParent=1;resizeParentMax=0;resizeLast=0;collapsible=1;marginBottom=0;" vertex="1" parent="1">
                    <mxGeometry x="-740" y="220" width="250" height="86" as="geometry"/>
                </mxCell>
                <mxCell id="30" value="+ static int : range" style="text;strokeColor=none;fillColor=none;align=left;verticalAlign=top;spacingLeft=4;spacingRight=4;overflow=hidden;rotatable=0;points=[[0,0.5],[1,0.5]];portConstraint=eastwest;" vertex="1" parent="29">
                    <mxGeometry y="26" width="250" height="26" as="geometry"/>
                </mxCell>
                <mxCell id="31" value="" style="line;strokeWidth=1;fillColor=none;align=left;verticalAlign=middle;spacingTop=-1;spacingLeft=3;spacingRight=3;rotatable=0;labelPosition=right;points=[];portConstraint=eastwest;strokeColor=inherit;" vertex="1" parent="29">
                    <mxGeometry y="52" width="250" height="8" as="geometry"/>
                </mxCell>
                <mxCell id="32" value="+ HandheldDevice(String did, Angle dangle)" style="text;strokeColor=none;fillColor=none;align=left;verticalAlign=top;spacingLeft=4;spacingRight=4;overflow=hidden;rotatable=0;points=[[0,0.5],[1,0.5]];portConstraint=eastwest;" vertex="1" parent="29">
                    <mxGeometry y="60" width="250" height="26" as="geometry"/>
                </mxCell>
                <mxCell id="33" value="LaptopDevice" style="swimlane;fontStyle=3;align=center;verticalAlign=top;childLayout=stackLayout;horizontal=1;startSize=26;horizontalStack=0;resizeParent=1;resizeParentMax=0;resizeLast=0;collapsible=1;marginBottom=0;" vertex="1" parent="1">
                    <mxGeometry x="-740" y="402" width="250" height="86" as="geometry"/>
                </mxCell>
                <mxCell id="34" value="+ static int : range" style="text;strokeColor=none;fillColor=none;align=left;verticalAlign=top;spacingLeft=4;spacingRight=4;overflow=hidden;rotatable=0;points=[[0,0.5],[1,0.5]];portConstraint=eastwest;" vertex="1" parent="33">
                    <mxGeometry y="26" width="250" height="26" as="geometry"/>
                </mxCell>
                <mxCell id="35" value="" style="line;strokeWidth=1;fillColor=none;align=left;verticalAlign=middle;spacingTop=-1;spacingLeft=3;spacingRight=3;rotatable=0;labelPosition=right;points=[];portConstraint=eastwest;strokeColor=inherit;" vertex="1" parent="33">
                    <mxGeometry y="52" width="250" height="8" as="geometry"/>
                </mxCell>
                <mxCell id="36" value="+ LaptopDevice(String did, Angle dangle)" style="text;strokeColor=none;fillColor=none;align=left;verticalAlign=top;spacingLeft=4;spacingRight=4;overflow=hidden;rotatable=0;points=[[0,0.5],[1,0.5]];portConstraint=eastwest;" vertex="1" parent="33">
                    <mxGeometry y="60" width="250" height="26" as="geometry"/>
                </mxCell>
                <mxCell id="38" style="edgeStyle=none;rounded=0;html=1;strokeColor=default;endArrow=block;endFill=0;endSize=18;exitX=1;exitY=0.5;exitDx=0;exitDy=0;entryX=0;entryY=0.5;entryDx=0;entryDy=0;" edge="1" parent="1" source="30" target="3">
                    <mxGeometry relative="1" as="geometry">
                        <Array as="points"/>
                        <mxPoint x="-540" y="527" as="sourcePoint"/>
                        <mxPoint x="-330" y="270" as="targetPoint"/>
                    </mxGeometry>
                </mxCell>
                <mxCell id="39" style="edgeStyle=none;rounded=0;html=1;strokeColor=default;endArrow=block;endFill=0;endSize=18;exitX=1;exitY=0.5;exitDx=0;exitDy=0;entryX=0;entryY=0.5;entryDx=0;entryDy=0;" edge="1" parent="1">
                    <mxGeometry relative="1" as="geometry">
                        <Array as="points"/>
                        <mxPoint x="-489.9999999999998" y="440" as="sourcePoint"/>
                        <mxPoint x="-300" y="440" as="targetPoint"/>
                    </mxGeometry>
                </mxCell>
                <mxCell id="40" style="edgeStyle=none;rounded=0;html=1;strokeColor=default;endArrow=block;endFill=0;endSize=18;exitX=1;exitY=0.5;exitDx=0;exitDy=0;entryX=0;entryY=0.5;entryDx=0;entryDy=0;" edge="1" parent="1">
                    <mxGeometry relative="1" as="geometry">
                        <Array as="points"/>
                        <mxPoint x="-489.9999999999998" y="630" as="sourcePoint"/>
                        <mxPoint x="-300" y="630" as="targetPoint"/>
                    </mxGeometry>
                </mxCell>
                <mxCell id="41" value="Satellite" style="swimlane;fontStyle=1;align=center;verticalAlign=top;childLayout=stackLayout;horizontal=1;startSize=26;horizontalStack=0;resizeParent=1;resizeParentMax=0;resizeLast=0;collapsible=1;marginBottom=0;" vertex="1" parent="1">
                    <mxGeometry x="1241" y="210" width="570" height="970" as="geometry"/>
                </mxCell>
                <mxCell id="42" value="-  String: sID" style="text;strokeColor=none;fillColor=none;align=left;verticalAlign=top;spacingLeft=4;spacingRight=4;overflow=hidden;rotatable=0;points=[[0,0.5],[1,0.5]];portConstraint=eastwest;" vertex="1" parent="41">
                    <mxGeometry y="26" width="570" height="26" as="geometry"/>
                </mxCell>
                <mxCell id="59" value="-  double: height" style="text;strokeColor=none;fillColor=none;align=left;verticalAlign=top;spacingLeft=4;spacingRight=4;overflow=hidden;rotatable=0;points=[[0,0.5],[1,0.5]];portConstraint=eastwest;" vertex="1" parent="41">
                    <mxGeometry y="52" width="570" height="26" as="geometry"/>
                </mxCell>
                <mxCell id="60" value="-  int: velocity" style="text;strokeColor=none;fillColor=none;align=left;verticalAlign=top;spacingLeft=4;spacingRight=4;overflow=hidden;rotatable=0;points=[[0,0.5],[1,0.5]];portConstraint=eastwest;" vertex="1" parent="41">
                    <mxGeometry y="78" width="570" height="26" as="geometry"/>
                </mxCell>
                <mxCell id="61" value="-  boolean: desktop" style="text;strokeColor=none;fillColor=none;align=left;verticalAlign=top;spacingLeft=4;spacingRight=4;overflow=hidden;rotatable=0;points=[[0,0.5],[1,0.5]];portConstraint=eastwest;" vertex="1" parent="41">
                    <mxGeometry y="104" width="570" height="26" as="geometry"/>
                </mxCell>
                <mxCell id="191" value="-  Angle: sangle" style="text;strokeColor=none;fillColor=none;align=left;verticalAlign=top;spacingLeft=4;spacingRight=4;overflow=hidden;rotatable=0;points=[[0,0.5],[1,0.5]];portConstraint=eastwest;" vertex="1" parent="41">
                    <mxGeometry y="130" width="570" height="26" as="geometry"/>
                </mxCell>
                <mxCell id="43" value="-  Angle: sangle" style="text;strokeColor=none;fillColor=none;align=left;verticalAlign=top;spacingLeft=4;spacingRight=4;overflow=hidden;rotatable=0;points=[[0,0.5],[1,0.5]];portConstraint=eastwest;" vertex="1" parent="41">
                    <mxGeometry y="156" width="570" height="26" as="geometry"/>
                </mxCell>
                <mxCell id="44" value="-  int: range" style="text;strokeColor=none;fillColor=none;align=left;verticalAlign=top;spacingLeft=4;spacingRight=4;overflow=hidden;rotatable=0;points=[[0,0.5],[1,0.5]];portConstraint=eastwest;" vertex="1" parent="41">
                    <mxGeometry y="182" width="570" height="26" as="geometry"/>
                </mxCell>
                <mxCell id="45" value="-  int: filecanstore" style="text;strokeColor=none;fillColor=none;align=left;verticalAlign=top;spacingLeft=4;spacingRight=4;overflow=hidden;rotatable=0;points=[[0,0.5],[1,0.5]];portConstraint=eastwest;" vertex="1" parent="41">
                    <mxGeometry y="208" width="570" height="26" as="geometry"/>
                </mxCell>
                <mxCell id="62" value="-  int: bytescanstore" style="text;strokeColor=none;fillColor=none;align=left;verticalAlign=top;spacingLeft=4;spacingRight=4;overflow=hidden;rotatable=0;points=[[0,0.5],[1,0.5]];portConstraint=eastwest;" vertex="1" parent="41">
                    <mxGeometry y="234" width="570" height="26" as="geometry"/>
                </mxCell>
                <mxCell id="63" value="-  int: recrate" style="text;strokeColor=none;fillColor=none;align=left;verticalAlign=top;spacingLeft=4;spacingRight=4;overflow=hidden;rotatable=0;points=[[0,0.5],[1,0.5]];portConstraint=eastwest;" vertex="1" parent="41">
                    <mxGeometry y="260" width="570" height="26" as="geometry"/>
                </mxCell>
                <mxCell id="64" value="-  int: sendrate" style="text;strokeColor=none;fillColor=none;align=left;verticalAlign=top;spacingLeft=4;spacingRight=4;overflow=hidden;rotatable=0;points=[[0,0.5],[1,0.5]];portConstraint=eastwest;" vertex="1" parent="41">
                    <mxGeometry y="286" width="570" height="26" as="geometry"/>
                </mxCell>
                <mxCell id="65" value="-  int: nowrate" style="text;strokeColor=none;fillColor=none;align=left;verticalAlign=top;spacingLeft=4;spacingRight=4;overflow=hidden;rotatable=0;points=[[0,0.5],[1,0.5]];portConstraint=eastwest;" vertex="1" parent="41">
                    <mxGeometry y="312" width="570" height="26" as="geometry"/>
                </mxCell>
                <mxCell id="66" value="-  int: nowsendingrate" style="text;strokeColor=none;fillColor=none;align=left;verticalAlign=top;spacingLeft=4;spacingRight=4;overflow=hidden;rotatable=0;points=[[0,0.5],[1,0.5]];portConstraint=eastwest;" vertex="1" parent="41">
                    <mxGeometry y="338" width="570" height="26" as="geometry"/>
                </mxCell>
                <mxCell id="67" value="-  File: files[]" style="text;strokeColor=none;fillColor=none;align=left;verticalAlign=top;spacingLeft=4;spacingRight=4;overflow=hidden;rotatable=0;points=[[0,0.5],[1,0.5]];portConstraint=eastwest;" vertex="1" parent="41">
                    <mxGeometry y="364" width="570" height="26" as="geometry"/>
                </mxCell>
                <mxCell id="46" value="" style="line;strokeWidth=1;fillColor=none;align=left;verticalAlign=middle;spacingTop=-1;spacingLeft=3;spacingRight=3;rotatable=0;labelPosition=right;points=[];portConstraint=eastwest;strokeColor=inherit;" vertex="1" parent="41">
                    <mxGeometry y="390" width="570" height="8" as="geometry"/>
                </mxCell>
                <mxCell id="47" value="Satellite(String sID, double height, Angle sangle, int vel, int ra, boolean dType, int fs, int bs, int rc, int sr)" style="text;strokeColor=none;fillColor=none;align=left;verticalAlign=top;spacingLeft=4;spacingRight=4;overflow=hidden;rotatable=0;points=[[0,0.5],[1,0.5]];portConstraint=eastwest;" vertex="1" parent="41">
                    <mxGeometry y="398" width="570" height="26" as="geometry"/>
                </mxCell>
                <mxCell id="48" value="+ getsid(): String" style="text;strokeColor=none;fillColor=none;align=left;verticalAlign=top;spacingLeft=4;spacingRight=4;overflow=hidden;rotatable=0;points=[[0,0.5],[1,0.5]];portConstraint=eastwest;" vertex="1" parent="41">
                    <mxGeometry y="424" width="570" height="26" as="geometry"/>
                </mxCell>
                <mxCell id="49" value="+ getsangle(): Angle" style="text;strokeColor=none;fillColor=none;align=left;verticalAlign=top;spacingLeft=4;spacingRight=4;overflow=hidden;rotatable=0;points=[[0,0.5],[1,0.5]];portConstraint=eastwest;" vertex="1" parent="41">
                    <mxGeometry y="450" width="570" height="26" as="geometry"/>
                </mxCell>
                <mxCell id="73" value="+ setsangle(Angle newangle): void" style="text;strokeColor=none;fillColor=none;align=left;verticalAlign=top;spacingLeft=4;spacingRight=4;overflow=hidden;rotatable=0;points=[[0,0.5],[1,0.5]];portConstraint=eastwest;" vertex="1" parent="41">
                    <mxGeometry y="476" width="570" height="26" as="geometry"/>
                </mxCell>
                <mxCell id="50" value="+ getRange(): int" style="text;strokeColor=none;fillColor=none;align=left;verticalAlign=top;spacingLeft=4;spacingRight=4;overflow=hidden;rotatable=0;points=[[0,0.5],[1,0.5]];portConstraint=eastwest;" vertex="1" parent="41">
                    <mxGeometry y="502" width="570" height="26" as="geometry"/>
                </mxCell>
                <mxCell id="71" value="+ getHeight():  Height" style="text;strokeColor=none;fillColor=none;align=left;verticalAlign=top;spacingLeft=4;spacingRight=4;overflow=hidden;rotatable=0;points=[[0,0.5],[1,0.5]];portConstraint=eastwest;" vertex="1" parent="41">
                    <mxGeometry y="528" width="570" height="26" as="geometry"/>
                </mxCell>
                <mxCell id="72" value="+ setHeight(double Hegiht) : void" style="text;strokeColor=none;fillColor=none;align=left;verticalAlign=top;spacingLeft=4;spacingRight=4;overflow=hidden;rotatable=0;points=[[0,0.5],[1,0.5]];portConstraint=eastwest;" vertex="1" parent="41">
                    <mxGeometry y="554" width="570" height="26" as="geometry"/>
                </mxCell>
                <mxCell id="68" value="+ getvelocity(): int" style="text;strokeColor=none;fillColor=none;align=left;verticalAlign=top;spacingLeft=4;spacingRight=4;overflow=hidden;rotatable=0;points=[[0,0.5],[1,0.5]];portConstraint=eastwest;" vertex="1" parent="41">
                    <mxGeometry y="580" width="570" height="26" as="geometry"/>
                </mxCell>
                <mxCell id="69" value="+ isDesktop(): boolean" style="text;strokeColor=none;fillColor=none;align=left;verticalAlign=top;spacingLeft=4;spacingRight=4;overflow=hidden;rotatable=0;points=[[0,0.5],[1,0.5]];portConstraint=eastwest;" vertex="1" parent="41">
                    <mxGeometry y="606" width="570" height="26" as="geometry"/>
                </mxCell>
                <mxCell id="51" value="+ isHasfile(): boolean" style="text;strokeColor=none;fillColor=none;align=left;verticalAlign=top;spacingLeft=4;spacingRight=4;overflow=hidden;rotatable=0;points=[[0,0.5],[1,0.5]];portConstraint=eastwest;" vertex="1" parent="41">
                    <mxGeometry y="632" width="570" height="26" as="geometry"/>
                </mxCell>
                <mxCell id="52" value="+ getfiles() : File[]" style="text;strokeColor=none;fillColor=none;align=left;verticalAlign=top;spacingLeft=4;spacingRight=4;overflow=hidden;rotatable=0;points=[[0,0.5],[1,0.5]];portConstraint=eastwest;" vertex="1" parent="41">
                    <mxGeometry y="658" width="570" height="26" as="geometry"/>
                </mxCell>
                <mxCell id="53" value="+ addfile(File) : void" style="text;strokeColor=none;fillColor=none;align=left;verticalAlign=top;spacingLeft=4;spacingRight=4;overflow=hidden;rotatable=0;points=[[0,0.5],[1,0.5]];portConstraint=eastwest;" vertex="1" parent="41">
                    <mxGeometry y="684" width="570" height="26" as="geometry"/>
                </mxCell>
                <mxCell id="70" value="+ setfile(File[]) : void" style="text;strokeColor=none;fillColor=none;align=left;verticalAlign=top;spacingLeft=4;spacingRight=4;overflow=hidden;rotatable=0;points=[[0,0.5],[1,0.5]];portConstraint=eastwest;" vertex="1" parent="41">
                    <mxGeometry y="710" width="570" height="26" as="geometry"/>
                </mxCell>
                <mxCell id="74" value="+ getnowrate(): int" style="text;strokeColor=none;fillColor=none;align=left;verticalAlign=top;spacingLeft=4;spacingRight=4;overflow=hidden;rotatable=0;points=[[0,0.5],[1,0.5]];portConstraint=eastwest;" vertex="1" parent="41">
                    <mxGeometry y="736" width="570" height="26" as="geometry"/>
                </mxCell>
                <mxCell id="77" value="+ getNowsendingrate(): int" style="text;strokeColor=none;fillColor=none;align=left;verticalAlign=top;spacingLeft=4;spacingRight=4;overflow=hidden;rotatable=0;points=[[0,0.5],[1,0.5]];portConstraint=eastwest;" vertex="1" parent="41">
                    <mxGeometry y="762" width="570" height="26" as="geometry"/>
                </mxCell>
                <mxCell id="76" value="+ getoriginsendrate(): int" style="text;strokeColor=none;fillColor=none;align=left;verticalAlign=top;spacingLeft=4;spacingRight=4;overflow=hidden;rotatable=0;points=[[0,0.5],[1,0.5]];portConstraint=eastwest;" vertex="1" parent="41">
                    <mxGeometry y="788" width="570" height="26" as="geometry"/>
                </mxCell>
                <mxCell id="78" value="+ setNowsendingrate(int): void&#10;&#10;" style="text;strokeColor=none;fillColor=none;align=left;verticalAlign=top;spacingLeft=4;spacingRight=4;overflow=hidden;rotatable=0;points=[[0,0.5],[1,0.5]];portConstraint=eastwest;" vertex="1" parent="41">
                    <mxGeometry y="814" width="570" height="26" as="geometry"/>
                </mxCell>
                <mxCell id="75" value="+ abstract move(): void" style="text;strokeColor=none;fillColor=none;align=left;verticalAlign=top;spacingLeft=4;spacingRight=4;overflow=hidden;rotatable=0;points=[[0,0.5],[1,0.5]];portConstraint=eastwest;" vertex="1" parent="41">
                    <mxGeometry y="840" width="570" height="26" as="geometry"/>
                </mxCell>
                <mxCell id="55" value="+ sendfile(String filename, Device de, Satellite sa): void throws FileTransferException " style="text;strokeColor=none;fillColor=none;align=left;verticalAlign=top;spacingLeft=4;spacingRight=4;overflow=hidden;rotatable=0;points=[[0,0.5],[1,0.5]];portConstraint=eastwest;" vertex="1" parent="41">
                    <mxGeometry y="866" width="570" height="26" as="geometry"/>
                </mxCell>
                <mxCell id="56" value="+ receiving(File gotFile, Device fromthis, Satellite inputsate): void throws FileTransferException " style="text;strokeColor=none;fillColor=none;align=left;verticalAlign=top;spacingLeft=4;spacingRight=4;overflow=hidden;rotatable=0;points=[[0,0.5],[1,0.5]];portConstraint=eastwest;" vertex="1" parent="41">
                    <mxGeometry y="892" width="570" height="26" as="geometry"/>
                </mxCell>
                <mxCell id="57" value="+ transiting(File f, List&lt;String&gt; rangelist): void&#10;" style="text;strokeColor=none;fillColor=none;align=left;verticalAlign=top;spacingLeft=4;spacingRight=4;overflow=hidden;rotatable=0;points=[[0,0.5],[1,0.5]];portConstraint=eastwest;" vertex="1" parent="41">
                    <mxGeometry y="918" width="570" height="26" as="geometry"/>
                </mxCell>
                <mxCell id="58" value="+ transitdone(String filename) : void" style="text;strokeColor=none;fillColor=none;align=left;verticalAlign=top;spacingLeft=4;spacingRight=4;overflow=hidden;rotatable=0;points=[[0,0.5],[1,0.5]];portConstraint=eastwest;" vertex="1" parent="41">
                    <mxGeometry y="944" width="570" height="26" as="geometry"/>
                </mxCell>
                <mxCell id="79" value="StandardSatellite" style="swimlane;fontStyle=3;align=center;verticalAlign=top;childLayout=stackLayout;horizontal=1;startSize=26;horizontalStack=0;resizeParent=1;resizeParentMax=0;resizeLast=0;collapsible=1;marginBottom=0;" vertex="1" parent="1">
                    <mxGeometry x="2109" y="230" width="340" height="294" as="geometry"/>
                </mxCell>
                <mxCell id="80" value="+ static int : velocity" style="text;strokeColor=none;fillColor=none;align=left;verticalAlign=top;spacingLeft=4;spacingRight=4;overflow=hidden;rotatable=0;points=[[0,0.5],[1,0.5]];portConstraint=eastwest;" vertex="1" parent="79">
                    <mxGeometry y="26" width="340" height="26" as="geometry"/>
                </mxCell>
                <mxCell id="83" value="+ static int : range" style="text;strokeColor=none;fillColor=none;align=left;verticalAlign=top;spacingLeft=4;spacingRight=4;overflow=hidden;rotatable=0;points=[[0,0.5],[1,0.5]];portConstraint=eastwest;" vertex="1" parent="79">
                    <mxGeometry y="52" width="340" height="26" as="geometry"/>
                </mxCell>
                <mxCell id="84" value="+ static int : filecanstore" style="text;strokeColor=none;fillColor=none;align=left;verticalAlign=top;spacingLeft=4;spacingRight=4;overflow=hidden;rotatable=0;points=[[0,0.5],[1,0.5]];portConstraint=eastwest;" vertex="1" parent="79">
                    <mxGeometry y="78" width="340" height="26" as="geometry"/>
                </mxCell>
                <mxCell id="85" value="+ static int : bytescanstore" style="text;strokeColor=none;fillColor=none;align=left;verticalAlign=top;spacingLeft=4;spacingRight=4;overflow=hidden;rotatable=0;points=[[0,0.5],[1,0.5]];portConstraint=eastwest;" vertex="1" parent="79">
                    <mxGeometry y="104" width="340" height="26" as="geometry"/>
                </mxCell>
                <mxCell id="86" value="+ static int : recrate" style="text;strokeColor=none;fillColor=none;align=left;verticalAlign=top;spacingLeft=4;spacingRight=4;overflow=hidden;rotatable=0;points=[[0,0.5],[1,0.5]];portConstraint=eastwest;" vertex="1" parent="79">
                    <mxGeometry y="130" width="340" height="26" as="geometry"/>
                </mxCell>
                <mxCell id="87" value="+ static int : sendrate" style="text;strokeColor=none;fillColor=none;align=left;verticalAlign=top;spacingLeft=4;spacingRight=4;overflow=hidden;rotatable=0;points=[[0,0.5],[1,0.5]];portConstraint=eastwest;" vertex="1" parent="79">
                    <mxGeometry y="156" width="340" height="26" as="geometry"/>
                </mxCell>
                <mxCell id="88" value="+ static boolean : desktop" style="text;strokeColor=none;fillColor=none;align=left;verticalAlign=top;spacingLeft=4;spacingRight=4;overflow=hidden;rotatable=0;points=[[0,0.5],[1,0.5]];portConstraint=eastwest;" vertex="1" parent="79">
                    <mxGeometry y="182" width="340" height="26" as="geometry"/>
                </mxCell>
                <mxCell id="89" value="- private Angle: newangle" style="text;strokeColor=none;fillColor=none;align=left;verticalAlign=top;spacingLeft=4;spacingRight=4;overflow=hidden;rotatable=0;points=[[0,0.5],[1,0.5]];portConstraint=eastwest;" vertex="1" parent="79">
                    <mxGeometry y="208" width="340" height="26" as="geometry"/>
                </mxCell>
                <mxCell id="81" value="" style="line;strokeWidth=1;fillColor=none;align=left;verticalAlign=middle;spacingTop=-1;spacingLeft=3;spacingRight=3;rotatable=0;labelPosition=right;points=[];portConstraint=eastwest;strokeColor=inherit;" vertex="1" parent="79">
                    <mxGeometry y="234" width="340" height="8" as="geometry"/>
                </mxCell>
                <mxCell id="82" value="+ StandardSatellite(String sID, double height, Angle sangle)" style="text;strokeColor=none;fillColor=none;align=left;verticalAlign=top;spacingLeft=4;spacingRight=4;overflow=hidden;rotatable=0;points=[[0,0.5],[1,0.5]];portConstraint=eastwest;" vertex="1" parent="79">
                    <mxGeometry y="242" width="340" height="26" as="geometry"/>
                </mxCell>
                <mxCell id="90" value="+ move(): void" style="text;strokeColor=none;fillColor=none;align=left;verticalAlign=top;spacingLeft=4;spacingRight=4;overflow=hidden;rotatable=0;points=[[0,0.5],[1,0.5]];portConstraint=eastwest;" vertex="1" parent="79">
                    <mxGeometry y="268" width="340" height="26" as="geometry"/>
                </mxCell>
                <mxCell id="91" value="TeleportingSatellite" style="swimlane;fontStyle=3;align=center;verticalAlign=top;childLayout=stackLayout;horizontal=1;startSize=26;horizontalStack=0;resizeParent=1;resizeParentMax=0;resizeLast=0;collapsible=1;marginBottom=0;" vertex="1" parent="1">
                    <mxGeometry x="2109" y="570" width="340" height="320" as="geometry"/>
                </mxCell>
                <mxCell id="92" value="+ static int : velocity" style="text;strokeColor=none;fillColor=none;align=left;verticalAlign=top;spacingLeft=4;spacingRight=4;overflow=hidden;rotatable=0;points=[[0,0.5],[1,0.5]];portConstraint=eastwest;" vertex="1" parent="91">
                    <mxGeometry y="26" width="340" height="26" as="geometry"/>
                </mxCell>
                <mxCell id="93" value="+ static int : range" style="text;strokeColor=none;fillColor=none;align=left;verticalAlign=top;spacingLeft=4;spacingRight=4;overflow=hidden;rotatable=0;points=[[0,0.5],[1,0.5]];portConstraint=eastwest;" vertex="1" parent="91">
                    <mxGeometry y="52" width="340" height="26" as="geometry"/>
                </mxCell>
                <mxCell id="94" value="+ static int : filecanstore" style="text;strokeColor=none;fillColor=none;align=left;verticalAlign=top;spacingLeft=4;spacingRight=4;overflow=hidden;rotatable=0;points=[[0,0.5],[1,0.5]];portConstraint=eastwest;" vertex="1" parent="91">
                    <mxGeometry y="78" width="340" height="26" as="geometry"/>
                </mxCell>
                <mxCell id="95" value="+ static int : bytescanstore" style="text;strokeColor=none;fillColor=none;align=left;verticalAlign=top;spacingLeft=4;spacingRight=4;overflow=hidden;rotatable=0;points=[[0,0.5],[1,0.5]];portConstraint=eastwest;" vertex="1" parent="91">
                    <mxGeometry y="104" width="340" height="26" as="geometry"/>
                </mxCell>
                <mxCell id="96" value="+ static int : recrate" style="text;strokeColor=none;fillColor=none;align=left;verticalAlign=top;spacingLeft=4;spacingRight=4;overflow=hidden;rotatable=0;points=[[0,0.5],[1,0.5]];portConstraint=eastwest;" vertex="1" parent="91">
                    <mxGeometry y="130" width="340" height="26" as="geometry"/>
                </mxCell>
                <mxCell id="97" value="+ static int : sendrate" style="text;strokeColor=none;fillColor=none;align=left;verticalAlign=top;spacingLeft=4;spacingRight=4;overflow=hidden;rotatable=0;points=[[0,0.5],[1,0.5]];portConstraint=eastwest;" vertex="1" parent="91">
                    <mxGeometry y="156" width="340" height="26" as="geometry"/>
                </mxCell>
                <mxCell id="98" value="+ static boolean : desktop" style="text;strokeColor=none;fillColor=none;align=left;verticalAlign=top;spacingLeft=4;spacingRight=4;overflow=hidden;rotatable=0;points=[[0,0.5],[1,0.5]];portConstraint=eastwest;" vertex="1" parent="91">
                    <mxGeometry y="182" width="340" height="26" as="geometry"/>
                </mxCell>
                <mxCell id="99" value="- boolean: antidirect" style="text;strokeColor=none;fillColor=none;align=left;verticalAlign=top;spacingLeft=4;spacingRight=4;overflow=hidden;rotatable=0;points=[[0,0.5],[1,0.5]];portConstraint=eastwest;" vertex="1" parent="91">
                    <mxGeometry y="208" width="340" height="26" as="geometry"/>
                </mxCell>
                <mxCell id="103" value="-  Angle: newangle" style="text;strokeColor=none;fillColor=none;align=left;verticalAlign=top;spacingLeft=4;spacingRight=4;overflow=hidden;rotatable=0;points=[[0,0.5],[1,0.5]];portConstraint=eastwest;" vertex="1" parent="91">
                    <mxGeometry y="234" width="340" height="26" as="geometry"/>
                </mxCell>
                <mxCell id="100" value="" style="line;strokeWidth=1;fillColor=none;align=left;verticalAlign=middle;spacingTop=-1;spacingLeft=3;spacingRight=3;rotatable=0;labelPosition=right;points=[];portConstraint=eastwest;strokeColor=inherit;" vertex="1" parent="91">
                    <mxGeometry y="260" width="340" height="8" as="geometry"/>
                </mxCell>
                <mxCell id="101" value="+ TeleportingSatellite (String sID, double height, Angle sangle)" style="text;strokeColor=none;fillColor=none;align=left;verticalAlign=top;spacingLeft=4;spacingRight=4;overflow=hidden;rotatable=0;points=[[0,0.5],[1,0.5]];portConstraint=eastwest;" vertex="1" parent="91">
                    <mxGeometry y="268" width="340" height="26" as="geometry"/>
                </mxCell>
                <mxCell id="102" value="+ move(): void" style="text;strokeColor=none;fillColor=none;align=left;verticalAlign=top;spacingLeft=4;spacingRight=4;overflow=hidden;rotatable=0;points=[[0,0.5],[1,0.5]];portConstraint=eastwest;" vertex="1" parent="91">
                    <mxGeometry y="294" width="340" height="26" as="geometry"/>
                </mxCell>
                <mxCell id="104" value="RelaySatellite" style="swimlane;fontStyle=3;align=center;verticalAlign=top;childLayout=stackLayout;horizontal=1;startSize=26;horizontalStack=0;resizeParent=1;resizeParentMax=0;resizeLast=0;collapsible=1;marginBottom=0;" vertex="1" parent="1">
                    <mxGeometry x="2101" y="927" width="340" height="242" as="geometry"/>
                </mxCell>
                <mxCell id="105" value="+ static int : velocity" style="text;strokeColor=none;fillColor=none;align=left;verticalAlign=top;spacingLeft=4;spacingRight=4;overflow=hidden;rotatable=0;points=[[0,0.5],[1,0.5]];portConstraint=eastwest;" vertex="1" parent="104">
                    <mxGeometry y="26" width="340" height="26" as="geometry"/>
                </mxCell>
                <mxCell id="106" value="+ static int : range" style="text;strokeColor=none;fillColor=none;align=left;verticalAlign=top;spacingLeft=4;spacingRight=4;overflow=hidden;rotatable=0;points=[[0,0.5],[1,0.5]];portConstraint=eastwest;" vertex="1" parent="104">
                    <mxGeometry y="52" width="340" height="26" as="geometry"/>
                </mxCell>
                <mxCell id="107" value="+ static int : nofile" style="text;strokeColor=none;fillColor=none;align=left;verticalAlign=top;spacingLeft=4;spacingRight=4;overflow=hidden;rotatable=0;points=[[0,0.5],[1,0.5]];portConstraint=eastwest;" vertex="1" parent="104">
                    <mxGeometry y="78" width="340" height="26" as="geometry"/>
                </mxCell>
                <mxCell id="111" value="+ static boolean : desktop" style="text;strokeColor=none;fillColor=none;align=left;verticalAlign=top;spacingLeft=4;spacingRight=4;overflow=hidden;rotatable=0;points=[[0,0.5],[1,0.5]];portConstraint=eastwest;" vertex="1" parent="104">
                    <mxGeometry y="104" width="340" height="26" as="geometry"/>
                </mxCell>
                <mxCell id="112" value="- boolean: anticlockdire" style="text;strokeColor=none;fillColor=none;align=left;verticalAlign=top;spacingLeft=4;spacingRight=4;overflow=hidden;rotatable=0;points=[[0,0.5],[1,0.5]];portConstraint=eastwest;" vertex="1" parent="104">
                    <mxGeometry y="130" width="340" height="26" as="geometry"/>
                </mxCell>
                <mxCell id="113" value="-  Angle: newangle" style="text;strokeColor=none;fillColor=none;align=left;verticalAlign=top;spacingLeft=4;spacingRight=4;overflow=hidden;rotatable=0;points=[[0,0.5],[1,0.5]];portConstraint=eastwest;" vertex="1" parent="104">
                    <mxGeometry y="156" width="340" height="26" as="geometry"/>
                </mxCell>
                <mxCell id="114" value="" style="line;strokeWidth=1;fillColor=none;align=left;verticalAlign=middle;spacingTop=-1;spacingLeft=3;spacingRight=3;rotatable=0;labelPosition=right;points=[];portConstraint=eastwest;strokeColor=inherit;" vertex="1" parent="104">
                    <mxGeometry y="182" width="340" height="8" as="geometry"/>
                </mxCell>
                <mxCell id="115" value="+ RelaySatellite(String sID, double height, Angle sangle)" style="text;strokeColor=none;fillColor=none;align=left;verticalAlign=top;spacingLeft=4;spacingRight=4;overflow=hidden;rotatable=0;points=[[0,0.5],[1,0.5]];portConstraint=eastwest;" vertex="1" parent="104">
                    <mxGeometry y="190" width="340" height="26" as="geometry"/>
                </mxCell>
                <mxCell id="116" value="+ move(): void" style="text;strokeColor=none;fillColor=none;align=left;verticalAlign=top;spacingLeft=4;spacingRight=4;overflow=hidden;rotatable=0;points=[[0,0.5],[1,0.5]];portConstraint=eastwest;" vertex="1" parent="104">
                    <mxGeometry y="216" width="340" height="26" as="geometry"/>
                </mxCell>
                <mxCell id="117" style="edgeStyle=none;rounded=0;html=1;strokeColor=default;endArrow=block;endFill=0;endSize=18;exitX=-0.011;exitY=-0.253;exitDx=0;exitDy=0;entryX=1;entryY=0.5;entryDx=0;entryDy=0;exitPerimeter=0;" edge="1" parent="1" source="84" target="60">
                    <mxGeometry relative="1" as="geometry">
                        <Array as="points"/>
                        <mxPoint x="1791" y="370" as="sourcePoint"/>
                        <mxPoint x="1981" y="370" as="targetPoint"/>
                    </mxGeometry>
                </mxCell>
                <mxCell id="118" style="edgeStyle=none;rounded=0;html=1;strokeColor=default;endArrow=block;endFill=0;endSize=18;exitX=0;exitY=0.5;exitDx=0;exitDy=0;entryX=1.008;entryY=0.064;entryDx=0;entryDy=0;entryPerimeter=0;" edge="1" parent="1" source="96" target="71">
                    <mxGeometry relative="1" as="geometry">
                        <Array as="points"/>
                        <mxPoint x="2127.26" y="311.4219999999999" as="sourcePoint"/>
                        <mxPoint x="1821" y="311" as="targetPoint"/>
                    </mxGeometry>
                </mxCell>
                <mxCell id="119" style="edgeStyle=none;rounded=0;html=1;strokeColor=default;endArrow=block;endFill=0;endSize=18;exitX=0;exitY=-0.288;exitDx=0;exitDy=0;entryX=0.996;entryY=-0.179;entryDx=0;entryDy=0;exitPerimeter=0;entryPerimeter=0;" edge="1" parent="1" source="112" target="55">
                    <mxGeometry relative="1" as="geometry">
                        <Array as="points"/>
                        <mxPoint x="2117.26" y="1130.422" as="sourcePoint"/>
                        <mxPoint x="1811" y="1130" as="targetPoint"/>
                    </mxGeometry>
                </mxCell>
                <mxCell id="120" value="File" style="swimlane;fontStyle=1;align=center;verticalAlign=top;childLayout=stackLayout;horizontal=1;startSize=26;horizontalStack=0;resizeParent=1;resizeParentMax=0;resizeLast=0;collapsible=1;marginBottom=0;" vertex="1" parent="1">
                    <mxGeometry x="620" y="-750" width="410" height="788" as="geometry"/>
                </mxCell>
                <mxCell id="121" value="-  String: filename" style="text;strokeColor=none;fillColor=none;align=left;verticalAlign=top;spacingLeft=4;spacingRight=4;overflow=hidden;rotatable=0;points=[[0,0.5],[1,0.5]];portConstraint=eastwest;" vertex="1" parent="120">
                    <mxGeometry y="26" width="410" height="26" as="geometry"/>
                </mxCell>
                <mxCell id="138" value="-  String: content" style="text;strokeColor=none;fillColor=none;align=left;verticalAlign=top;spacingLeft=4;spacingRight=4;overflow=hidden;rotatable=0;points=[[0,0.5],[1,0.5]];portConstraint=eastwest;" vertex="1" parent="120">
                    <mxGeometry y="52" width="410" height="26" as="geometry"/>
                </mxCell>
                <mxCell id="122" value="- boolean: istransiting_send" style="text;strokeColor=none;fillColor=none;align=left;verticalAlign=top;spacingLeft=4;spacingRight=4;overflow=hidden;rotatable=0;points=[[0,0.5],[1,0.5]];portConstraint=eastwest;" vertex="1" parent="120">
                    <mxGeometry y="78" width="410" height="26" as="geometry"/>
                </mxCell>
                <mxCell id="140" value="- boolean: istransiting_rec" style="text;strokeColor=none;fillColor=none;align=left;verticalAlign=top;spacingLeft=4;spacingRight=4;overflow=hidden;rotatable=0;points=[[0,0.5],[1,0.5]];portConstraint=eastwest;" vertex="1" parent="120">
                    <mxGeometry y="104" width="410" height="26" as="geometry"/>
                </mxCell>
                <mxCell id="123" value="- int: size" style="text;strokeColor=none;fillColor=none;align=left;verticalAlign=top;spacingLeft=4;spacingRight=4;overflow=hidden;rotatable=0;points=[[0,0.5],[1,0.5]];portConstraint=eastwest;" vertex="1" parent="120">
                    <mxGeometry y="130" width="410" height="26" as="geometry"/>
                </mxCell>
                <mxCell id="141" value="- int: shouldbesize" style="text;strokeColor=none;fillColor=none;align=left;verticalAlign=top;spacingLeft=4;spacingRight=4;overflow=hidden;rotatable=0;points=[[0,0.5],[1,0.5]];portConstraint=eastwest;" vertex="1" parent="120">
                    <mxGeometry y="156" width="410" height="26" as="geometry"/>
                </mxCell>
                <mxCell id="144" value="- int: howmanyseningto" style="text;strokeColor=none;fillColor=none;align=left;verticalAlign=top;spacingLeft=4;spacingRight=4;overflow=hidden;rotatable=0;points=[[0,0.5],[1,0.5]];portConstraint=eastwest;" vertex="1" parent="120">
                    <mxGeometry y="182" width="410" height="26" as="geometry"/>
                </mxCell>
                <mxCell id="142" value="- Device: fromdevice" style="text;strokeColor=none;fillColor=none;align=left;verticalAlign=top;spacingLeft=4;spacingRight=4;overflow=hidden;rotatable=0;points=[[0,0.5],[1,0.5]];portConstraint=eastwest;" vertex="1" parent="120">
                    <mxGeometry y="208" width="410" height="26" as="geometry"/>
                </mxCell>
                <mxCell id="143" value="- Satellite: fromSatellite" style="text;strokeColor=none;fillColor=none;align=left;verticalAlign=top;spacingLeft=4;spacingRight=4;overflow=hidden;rotatable=0;points=[[0,0.5],[1,0.5]];portConstraint=eastwest;" vertex="1" parent="120">
                    <mxGeometry y="234" width="410" height="26" as="geometry"/>
                </mxCell>
                <mxCell id="125" value="" style="line;strokeWidth=1;fillColor=none;align=left;verticalAlign=middle;spacingTop=-1;spacingLeft=3;spacingRight=3;rotatable=0;labelPosition=right;points=[];portConstraint=eastwest;strokeColor=inherit;" vertex="1" parent="120">
                    <mxGeometry y="260" width="410" height="8" as="geometry"/>
                </mxCell>
                <mxCell id="126" value="+ File(String filename, String content) : constructer" style="text;strokeColor=none;fillColor=none;align=left;verticalAlign=top;spacingLeft=4;spacingRight=4;overflow=hidden;rotatable=0;points=[[0,0.5],[1,0.5]];portConstraint=eastwest;" vertex="1" parent="120">
                    <mxGeometry y="268" width="410" height="26" as="geometry"/>
                </mxCell>
                <mxCell id="129" value="+ getHowmanyseningto(): void" style="text;strokeColor=none;fillColor=none;align=left;verticalAlign=top;spacingLeft=4;spacingRight=4;overflow=hidden;rotatable=0;points=[[0,0.5],[1,0.5]];portConstraint=eastwest;" vertex="1" parent="120">
                    <mxGeometry y="294" width="410" height="26" as="geometry"/>
                </mxCell>
                <mxCell id="145" value="+ addHowmanyseningto(): void&#10;&#10;" style="text;strokeColor=none;fillColor=none;align=left;verticalAlign=top;spacingLeft=4;spacingRight=4;overflow=hidden;rotatable=0;points=[[0,0.5],[1,0.5]];portConstraint=eastwest;" vertex="1" parent="120">
                    <mxGeometry y="320" width="410" height="26" as="geometry"/>
                </mxCell>
                <mxCell id="146" value="+subHowmanyseningto(): void&#10;" style="text;strokeColor=none;fillColor=none;align=left;verticalAlign=top;spacingLeft=4;spacingRight=4;overflow=hidden;rotatable=0;points=[[0,0.5],[1,0.5]];portConstraint=eastwest;" vertex="1" parent="120">
                    <mxGeometry y="346" width="410" height="26" as="geometry"/>
                </mxCell>
                <mxCell id="147" value="+ setFilename(String): void&#10;&#10;" style="text;strokeColor=none;fillColor=none;align=left;verticalAlign=top;spacingLeft=4;spacingRight=4;overflow=hidden;rotatable=0;points=[[0,0.5],[1,0.5]];portConstraint=eastwest;" vertex="1" parent="120">
                    <mxGeometry y="372" width="410" height="26" as="geometry"/>
                </mxCell>
                <mxCell id="148" value="+ setContent(String): void&#10;" style="text;strokeColor=none;fillColor=none;align=left;verticalAlign=top;spacingLeft=4;spacingRight=4;overflow=hidden;rotatable=0;points=[[0,0.5],[1,0.5]];portConstraint=eastwest;" vertex="1" parent="120">
                    <mxGeometry y="398" width="410" height="26" as="geometry"/>
                </mxCell>
                <mxCell id="149" value="+ addContent(String): void&#10;" style="text;strokeColor=none;fillColor=none;align=left;verticalAlign=top;spacingLeft=4;spacingRight=4;overflow=hidden;rotatable=0;points=[[0,0.5],[1,0.5]];portConstraint=eastwest;" vertex="1" parent="120">
                    <mxGeometry y="424" width="410" height="26" as="geometry"/>
                </mxCell>
                <mxCell id="150" value="+ getshouldbesize(): int" style="text;strokeColor=none;fillColor=none;align=left;verticalAlign=top;spacingLeft=4;spacingRight=4;overflow=hidden;rotatable=0;points=[[0,0.5],[1,0.5]];portConstraint=eastwest;" vertex="1" parent="120">
                    <mxGeometry y="450" width="410" height="26" as="geometry"/>
                </mxCell>
                <mxCell id="154" value="+ getSize(): int" style="text;strokeColor=none;fillColor=none;align=left;verticalAlign=top;spacingLeft=4;spacingRight=4;overflow=hidden;rotatable=0;points=[[0,0.5],[1,0.5]];portConstraint=eastwest;" vertex="1" parent="120">
                    <mxGeometry y="476" width="410" height="26" as="geometry"/>
                </mxCell>
                <mxCell id="151" value="+ setshouldbesiz(int): void" style="text;strokeColor=none;fillColor=none;align=left;verticalAlign=top;spacingLeft=4;spacingRight=4;overflow=hidden;rotatable=0;points=[[0,0.5],[1,0.5]];portConstraint=eastwest;" vertex="1" parent="120">
                    <mxGeometry y="502" width="410" height="26" as="geometry"/>
                </mxCell>
                <mxCell id="152" value="+ getFilename(): string&#10;&#10;" style="text;strokeColor=none;fillColor=none;align=left;verticalAlign=top;spacingLeft=4;spacingRight=4;overflow=hidden;rotatable=0;points=[[0,0.5],[1,0.5]];portConstraint=eastwest;" vertex="1" parent="120">
                    <mxGeometry y="528" width="410" height="26" as="geometry"/>
                </mxCell>
                <mxCell id="153" value="+ getcontent(): string&#10;&#10;" style="text;strokeColor=none;fillColor=none;align=left;verticalAlign=top;spacingLeft=4;spacingRight=4;overflow=hidden;rotatable=0;points=[[0,0.5],[1,0.5]];portConstraint=eastwest;" vertex="1" parent="120">
                    <mxGeometry y="554" width="410" height="26" as="geometry"/>
                </mxCell>
                <mxCell id="155" value="+ isIstransiting_send(): boolean&#10;&#10;" style="text;strokeColor=none;fillColor=none;align=left;verticalAlign=top;spacingLeft=4;spacingRight=4;overflow=hidden;rotatable=0;points=[[0,0.5],[1,0.5]];portConstraint=eastwest;" vertex="1" parent="120">
                    <mxGeometry y="580" width="410" height="26" as="geometry"/>
                </mxCell>
                <mxCell id="157" value="+ isIstransiting_rec(): boolean&#10;" style="text;strokeColor=none;fillColor=none;align=left;verticalAlign=top;spacingLeft=4;spacingRight=4;overflow=hidden;rotatable=0;points=[[0,0.5],[1,0.5]];portConstraint=eastwest;" vertex="1" parent="120">
                    <mxGeometry y="606" width="410" height="26" as="geometry"/>
                </mxCell>
                <mxCell id="156" value="+ setIstransiting_send(boolean istransiting_send):void&#10;" style="text;strokeColor=none;fillColor=none;align=left;verticalAlign=top;spacingLeft=4;spacingRight=4;overflow=hidden;rotatable=0;points=[[0,0.5],[1,0.5]];portConstraint=eastwest;" vertex="1" parent="120">
                    <mxGeometry y="632" width="410" height="26" as="geometry"/>
                </mxCell>
                <mxCell id="158" value="+ setIstransiting_rec(boolean setIstransiting_rec):void&#10;" style="text;strokeColor=none;fillColor=none;align=left;verticalAlign=top;spacingLeft=4;spacingRight=4;overflow=hidden;rotatable=0;points=[[0,0.5],[1,0.5]];portConstraint=eastwest;" vertex="1" parent="120">
                    <mxGeometry y="658" width="410" height="26" as="geometry"/>
                </mxCell>
                <mxCell id="159" value="+ getFromdevices(): Device&#10;&#10;" style="text;strokeColor=none;fillColor=none;align=left;verticalAlign=top;spacingLeft=4;spacingRight=4;overflow=hidden;rotatable=0;points=[[0,0.5],[1,0.5]];portConstraint=eastwest;" vertex="1" parent="120">
                    <mxGeometry y="684" width="410" height="26" as="geometry"/>
                </mxCell>
                <mxCell id="160" value="+ getFromsatellite(): Satellite&#10;" style="text;strokeColor=none;fillColor=none;align=left;verticalAlign=top;spacingLeft=4;spacingRight=4;overflow=hidden;rotatable=0;points=[[0,0.5],[1,0.5]];portConstraint=eastwest;" vertex="1" parent="120">
                    <mxGeometry y="710" width="410" height="26" as="geometry"/>
                </mxCell>
                <mxCell id="161" value="+ setFromdevices(Device de): void&#10;" style="text;strokeColor=none;fillColor=none;align=left;verticalAlign=top;spacingLeft=4;spacingRight=4;overflow=hidden;rotatable=0;points=[[0,0.5],[1,0.5]];portConstraint=eastwest;" vertex="1" parent="120">
                    <mxGeometry y="736" width="410" height="26" as="geometry"/>
                </mxCell>
                <mxCell id="162" value="+ setFromsatellite(Satellite sa): void&#10;" style="text;strokeColor=none;fillColor=none;align=left;verticalAlign=top;spacingLeft=4;spacingRight=4;overflow=hidden;rotatable=0;points=[[0,0.5],[1,0.5]];portConstraint=eastwest;" vertex="1" parent="120">
                    <mxGeometry y="762" width="410" height="26" as="geometry"/>
                </mxCell>
                <mxCell id="163" style="edgeStyle=none;html=1;entryX=0.5;entryY=0;entryDx=0;entryDy=0;endArrow=diamondThin;endFill=0;endSize=18;exitX=0.468;exitY=0.979;exitDx=0;exitDy=0;exitPerimeter=0;" edge="1" parent="1" source="162" target="2">
                    <mxGeometry relative="1" as="geometry">
                        <mxPoint x="459" y="359" as="sourcePoint"/>
                        <mxPoint x="330" y="359" as="targetPoint"/>
                    </mxGeometry>
                </mxCell>
                <mxCell id="164" style="edgeStyle=none;html=1;endArrow=diamondThin;endFill=0;endSize=18;exitX=0.47;exitY=0.979;exitDx=0;exitDy=0;exitPerimeter=0;entryX=0.5;entryY=0;entryDx=0;entryDy=0;" edge="1" parent="1" source="162" target="41">
                    <mxGeometry relative="1" as="geometry">
                        <mxPoint x="815.3199999999997" y="56.008000000000266" as="sourcePoint"/>
                        <mxPoint x="690" y="230" as="targetPoint"/>
                    </mxGeometry>
                </mxCell>
                <mxCell id="165" value="0 to infinity" style="text;html=1;align=center;verticalAlign=middle;resizable=0;points=[];autosize=1;strokeColor=none;fillColor=none;" vertex="1" parent="1">
                    <mxGeometry x="-96" y="170" width="80" height="30" as="geometry"/>
                </mxCell>
                <mxCell id="166" value="0..3" style="text;html=1;align=center;verticalAlign=middle;resizable=0;points=[];autosize=1;strokeColor=none;fillColor=none;" vertex="1" parent="1">
                    <mxGeometry x="1100" y="140" width="40" height="30" as="geometry"/>
                </mxCell>
                <mxCell id="167" value="0...infinty" style="text;html=1;align=center;verticalAlign=middle;resizable=0;points=[];autosize=1;strokeColor=none;fillColor=none;" vertex="1" parent="1">
                    <mxGeometry x="985" y="150" width="70" height="30" as="geometry"/>
                </mxCell>
                <mxCell id="168" value="BC" style="swimlane;fontStyle=1;align=center;verticalAlign=top;childLayout=stackLayout;horizontal=1;startSize=26;horizontalStack=0;resizeParent=1;resizeParentMax=0;resizeLast=0;collapsible=1;marginBottom=0;" vertex="1" parent="1">
                    <mxGeometry x="400" y="300" width="550" height="502" as="geometry"/>
                </mxCell>
                <mxCell id="170" value="- Device: devices[]" style="text;strokeColor=none;fillColor=none;align=left;verticalAlign=top;spacingLeft=4;spacingRight=4;overflow=hidden;rotatable=0;points=[[0,0.5],[1,0.5]];portConstraint=eastwest;" vertex="1" parent="168">
                    <mxGeometry y="26" width="550" height="26" as="geometry"/>
                </mxCell>
                <mxCell id="173" value="- Satellite: satellites[]" style="text;strokeColor=none;fillColor=none;align=left;verticalAlign=top;spacingLeft=4;spacingRight=4;overflow=hidden;rotatable=0;points=[[0,0.5],[1,0.5]];portConstraint=eastwest;" vertex="1" parent="168">
                    <mxGeometry y="52" width="550" height="26" as="geometry"/>
                </mxCell>
                <mxCell id="174" value="- String: Ids[]" style="text;strokeColor=none;fillColor=none;align=left;verticalAlign=top;spacingLeft=4;spacingRight=4;overflow=hidden;rotatable=0;points=[[0,0.5],[1,0.5]];portConstraint=eastwest;" vertex="1" parent="168">
                    <mxGeometry y="78" width="550" height="26" as="geometry"/>
                </mxCell>
                <mxCell id="175" value="- String: filenames[]" style="text;strokeColor=none;fillColor=none;align=left;verticalAlign=top;spacingLeft=4;spacingRight=4;overflow=hidden;rotatable=0;points=[[0,0.5],[1,0.5]];portConstraint=eastwest;" vertex="1" parent="168">
                    <mxGeometry y="104" width="550" height="26" as="geometry"/>
                </mxCell>
                <mxCell id="171" value="" style="line;strokeWidth=1;fillColor=none;align=left;verticalAlign=middle;spacingTop=-1;spacingLeft=3;spacingRight=3;rotatable=0;labelPosition=right;points=[];portConstraint=eastwest;strokeColor=inherit;" vertex="1" parent="168">
                    <mxGeometry y="130" width="550" height="8" as="geometry"/>
                </mxCell>
                <mxCell id="172" value="+ createDevice(String deviceId, String type, Angle position) : void throws Exception" style="text;strokeColor=none;fillColor=none;align=left;verticalAlign=top;spacingLeft=4;spacingRight=4;overflow=hidden;rotatable=0;points=[[0,0.5],[1,0.5]];portConstraint=eastwest;" vertex="1" parent="168">
                    <mxGeometry y="138" width="550" height="26" as="geometry"/>
                </mxCell>
                <mxCell id="178" value="+ removeDevice(String deviceId) : void throws Exception" style="text;strokeColor=none;fillColor=none;align=left;verticalAlign=top;spacingLeft=4;spacingRight=4;overflow=hidden;rotatable=0;points=[[0,0.5],[1,0.5]];portConstraint=eastwest;" vertex="1" parent="168">
                    <mxGeometry y="164" width="550" height="26" as="geometry"/>
                </mxCell>
                <mxCell id="179" value="+ createSatellite(String satelliteId, String type, double height, Angle position) : void throws Exception" style="text;strokeColor=none;fillColor=none;align=left;verticalAlign=top;spacingLeft=4;spacingRight=4;overflow=hidden;rotatable=0;points=[[0,0.5],[1,0.5]];portConstraint=eastwest;" vertex="1" parent="168">
                    <mxGeometry y="190" width="550" height="26" as="geometry"/>
                </mxCell>
                <mxCell id="180" value="+ removeSatellite(String satelliteId) : void throws Exceptiion" style="text;strokeColor=none;fillColor=none;align=left;verticalAlign=top;spacingLeft=4;spacingRight=4;overflow=hidden;rotatable=0;points=[[0,0.5],[1,0.5]];portConstraint=eastwest;" vertex="1" parent="168">
                    <mxGeometry y="216" width="550" height="26" as="geometry"/>
                </mxCell>
                <mxCell id="181" value="+ listDeviceIds(): String[]" style="text;strokeColor=none;fillColor=none;align=left;verticalAlign=top;spacingLeft=4;spacingRight=4;overflow=hidden;rotatable=0;points=[[0,0.5],[1,0.5]];portConstraint=eastwest;" vertex="1" parent="168">
                    <mxGeometry y="242" width="550" height="26" as="geometry"/>
                </mxCell>
                <mxCell id="182" value="+ listSatelliteIds(): String[]" style="text;strokeColor=none;fillColor=none;align=left;verticalAlign=top;spacingLeft=4;spacingRight=4;overflow=hidden;rotatable=0;points=[[0,0.5],[1,0.5]];portConstraint=eastwest;" vertex="1" parent="168">
                    <mxGeometry y="268" width="550" height="26" as="geometry"/>
                </mxCell>
                <mxCell id="183" value="+ listSatelliteIds(): String[]" style="text;strokeColor=none;fillColor=none;align=left;verticalAlign=top;spacingLeft=4;spacingRight=4;overflow=hidden;rotatable=0;points=[[0,0.5],[1,0.5]];portConstraint=eastwest;" vertex="1" parent="168">
                    <mxGeometry y="294" width="550" height="26" as="geometry"/>
                </mxCell>
                <mxCell id="184" value="+ getInfo(String id:  EntityInfoResponse" style="text;strokeColor=none;fillColor=none;align=left;verticalAlign=top;spacingLeft=4;spacingRight=4;overflow=hidden;rotatable=0;points=[[0,0.5],[1,0.5]];portConstraint=eastwest;" vertex="1" parent="168">
                    <mxGeometry y="320" width="550" height="26" as="geometry"/>
                </mxCell>
                <mxCell id="185" value="+ simulate(): void" style="text;strokeColor=none;fillColor=none;align=left;verticalAlign=top;spacingLeft=4;spacingRight=4;overflow=hidden;rotatable=0;points=[[0,0.5],[1,0.5]];portConstraint=eastwest;" vertex="1" parent="168">
                    <mxGeometry y="346" width="550" height="26" as="geometry"/>
                </mxCell>
                <mxCell id="186" value="+ simulate(int numberOfMinutes): void" style="text;strokeColor=none;fillColor=none;align=left;verticalAlign=top;spacingLeft=4;spacingRight=4;overflow=hidden;rotatable=0;points=[[0,0.5],[1,0.5]];portConstraint=eastwest;" vertex="1" parent="168">
                    <mxGeometry y="372" width="550" height="26" as="geometry"/>
                </mxCell>
                <mxCell id="187" value="+ communicableEntitiesInRange(String id): Strings[]" style="text;strokeColor=none;fillColor=none;align=left;verticalAlign=top;spacingLeft=4;spacingRight=4;overflow=hidden;rotatable=0;points=[[0,0.5],[1,0.5]];portConstraint=eastwest;" vertex="1" parent="168">
                    <mxGeometry y="398" width="550" height="26" as="geometry"/>
                </mxCell>
                <mxCell id="188" value="+ sendFile(String fileName, String fromId, String toId): void throws FileTransferException" style="text;strokeColor=none;fillColor=none;align=left;verticalAlign=top;spacingLeft=4;spacingRight=4;overflow=hidden;rotatable=0;points=[[0,0.5],[1,0.5]];portConstraint=eastwest;" vertex="1" parent="168">
                    <mxGeometry y="424" width="550" height="26" as="geometry"/>
                </mxCell>
                <mxCell id="189" value="+ createDevice(String deviceId, String type, Angle position, boolean isMoving): void throws Exception" style="text;strokeColor=none;fillColor=none;align=left;verticalAlign=top;spacingLeft=4;spacingRight=4;overflow=hidden;rotatable=0;points=[[0,0.5],[1,0.5]];portConstraint=eastwest;" vertex="1" parent="168">
                    <mxGeometry y="450" width="550" height="26" as="geometry"/>
                </mxCell>
                <mxCell id="190" value="+ createSlope(int startAngle, int endAngle, int gradient):void throws Exception" style="text;strokeColor=none;fillColor=none;align=left;verticalAlign=top;spacingLeft=4;spacingRight=4;overflow=hidden;rotatable=0;points=[[0,0.5],[1,0.5]];portConstraint=eastwest;" vertex="1" parent="168">
                    <mxGeometry y="476" width="550" height="26" as="geometry"/>
                </mxCell>
                <mxCell id="193" value="&lt;span style=&quot;color: rgba(0, 0, 0, 0); font-family: monospace; font-size: 0px; text-align: start; background-color: rgb(42, 37, 47);&quot;&gt;%3CmxGraphModel%3E%3Croot%3E%3CmxCell%20id%3D%220%22%2F%3E%3CmxCell%20id%3D%221%22%20parent%3D%220%22%2F%3E%3CmxCell%20id%3D%222%22%20style%3D%22edgeStyle%3DorthogonalEdgeStyle%3Brounded%3D0%3Bhtml%3D1%3BexitX%3D0.5%3BexitY%3D0%3BexitDx%3D0%3BexitDy%3D0%3BstrokeColor%3Ddefault%3BendArrow%3Dopen%3BendFill%3D0%3BendSize%3D18%3Bdashed%3D1%3B%22%20edge%3D%221%22%20parent%3D%221%22%3E%3CmxGeometry%20relative%3D%221%22%20as%3D%22geometry%22%3E%3CmxPoint%20x%3D%22-40%22%20y%3D%22510%22%20as%3D%22sourcePoint%22%2F%3E%3CmxPoint%20x%3D%22-40%22%20y%3D%22380%22%20as%3D%22targetPoint%22%2F%3E%3C%2FmxGeometry%3E%3C%2FmxCell%3E%3C%2Froot%3E%3C%2FmxGraphModel%3E&lt;/span&gt;" style="edgeStyle=orthogonalEdgeStyle;rounded=0;html=1;strokeColor=default;endArrow=open;endFill=0;endSize=18;dashed=1;entryX=0;entryY=0.5;entryDx=0;entryDy=0;" edge="1" parent="1" target="180">
                    <mxGeometry relative="1" as="geometry">
                        <mxPoint x="120" y="530" as="sourcePoint"/>
                        <mxPoint x="-30" y="390" as="targetPoint"/>
                        <Array as="points">
                            <mxPoint x="120" y="529"/>
                        </Array>
                    </mxGeometry>
                </mxCell>
                <mxCell id="194" style="edgeStyle=orthogonalEdgeStyle;rounded=0;html=1;strokeColor=default;endArrow=open;endFill=0;endSize=18;dashed=1;entryX=1.013;entryY=-0.308;entryDx=0;entryDy=0;entryPerimeter=0;" edge="1" parent="1" target="182">
                    <mxGeometry relative="1" as="geometry">
                        <mxPoint x="1241" y="560" as="sourcePoint"/>
                        <mxPoint x="-20" y="400" as="targetPoint"/>
                        <Array as="points">
                            <mxPoint x="1241" y="560"/>
                        </Array>
                    </mxGeometry>
                </mxCell>
                <mxCell id="197" value="Quickfunctions" style="swimlane;fontStyle=1;align=center;verticalAlign=top;childLayout=stackLayout;horizontal=1;startSize=26;horizontalStack=0;resizeParent=1;resizeParentMax=0;resizeLast=0;collapsible=1;marginBottom=0;" vertex="1" parent="1">
                    <mxGeometry x="435" y="1100" width="550" height="164" as="geometry"/>
                </mxCell>
                <mxCell id="198" value="- Device: devices[]" style="text;strokeColor=none;fillColor=none;align=left;verticalAlign=top;spacingLeft=4;spacingRight=4;overflow=hidden;rotatable=0;points=[[0,0.5],[1,0.5]];portConstraint=eastwest;" vertex="1" parent="197">
                    <mxGeometry y="26" width="550" height="26" as="geometry"/>
                </mxCell>
                <mxCell id="199" value="- Satellite: satellites[]" style="text;strokeColor=none;fillColor=none;align=left;verticalAlign=top;spacingLeft=4;spacingRight=4;overflow=hidden;rotatable=0;points=[[0,0.5],[1,0.5]];portConstraint=eastwest;" vertex="1" parent="197">
                    <mxGeometry y="52" width="550" height="26" as="geometry"/>
                </mxCell>
                <mxCell id="202" value="" style="line;strokeWidth=1;fillColor=none;align=left;verticalAlign=middle;spacingTop=-1;spacingLeft=3;spacingRight=3;rotatable=0;labelPosition=right;points=[];portConstraint=eastwest;strokeColor=inherit;" vertex="1" parent="197">
                    <mxGeometry y="78" width="550" height="8" as="geometry"/>
                </mxCell>
                <mxCell id="204" value="Quickfunctions(ArrayList&lt;Device&gt; devices, ArrayList&lt;Satellite&gt; satellites): constructor" style="text;strokeColor=none;fillColor=none;align=left;verticalAlign=top;spacingLeft=4;spacingRight=4;overflow=hidden;rotatable=0;points=[[0,0.5],[1,0.5]];portConstraint=eastwest;" vertex="1" parent="197">
                    <mxGeometry y="86" width="550" height="26" as="geometry"/>
                </mxCell>
                <mxCell id="205" value="+ getinfos(String id): EntityInfoResponse" style="text;strokeColor=none;fillColor=none;align=left;verticalAlign=top;spacingLeft=4;spacingRight=4;overflow=hidden;rotatable=0;points=[[0,0.5],[1,0.5]];portConstraint=eastwest;" vertex="1" parent="197">
                    <mxGeometry y="112" width="550" height="26" as="geometry"/>
                </mxCell>
                <mxCell id="206" value="+ checkrange(Device nowde, Satellite nowsa, boolean isde, boolean issa):strings[]" style="text;strokeColor=none;fillColor=none;align=left;verticalAlign=top;spacingLeft=4;spacingRight=4;overflow=hidden;rotatable=0;points=[[0,0.5],[1,0.5]];portConstraint=eastwest;" vertex="1" parent="197">
                    <mxGeometry y="138" width="550" height="26" as="geometry"/>
                </mxCell>
                <mxCell id="217" style="edgeStyle=orthogonalEdgeStyle;rounded=0;html=1;strokeColor=default;endArrow=open;endFill=0;endSize=18;dashed=1;" edge="1" parent="1" target="197">
                    <mxGeometry relative="1" as="geometry">
                        <mxPoint x="710" y="800" as="sourcePoint"/>
                        <mxPoint x="967.1499999999996" y="569.9919999999997" as="targetPoint"/>
                        <Array as="points">
                            <mxPoint x="710" y="960"/>
                            <mxPoint x="710" y="960"/>
                        </Array>
                    </mxGeometry>
                </mxCell>
                <mxCell id="218" value="creat()" style="text;html=1;align=center;verticalAlign=middle;resizable=0;points=[];autosize=1;strokeColor=none;fillColor=none;" vertex="1" parent="1">
                    <mxGeometry x="210" y="488" width="60" height="30" as="geometry"/>
                </mxCell>
                <mxCell id="219" value="creat()" style="text;html=1;align=center;verticalAlign=middle;resizable=0;points=[];autosize=1;strokeColor=none;fillColor=none;" vertex="1" parent="1">
                    <mxGeometry x="1090" y="510" width="60" height="30" as="geometry"/>
                </mxCell>
                <mxCell id="220" value="use this function" style="text;html=1;align=center;verticalAlign=middle;resizable=0;points=[];autosize=1;strokeColor=none;fillColor=none;" vertex="1" parent="1">
                    <mxGeometry x="565" y="1050" width="110" height="30" as="geometry"/>
                </mxCell>
            </root>
        </mxGraphModel>
    </diagram>
</mxfile>